<?xml version="1.0" encoding="utf-8"?>
<!-- Generator: Adobe Illustrator 16.0.0, SVG Export Plug-In . SVG Version: 6.00 Build 0)  -->
<!DOCTYPE svg PUBLIC "-//W3C//DTD SVG 1.1//EN" "http://www.w3.org/Graphics/SVG/1.1/DTD/svg11.dtd">
<svg version="1.1" id="Layer_1" xmlns="http://www.w3.org/2000/svg" xmlns:xlink="http://www.w3.org/1999/xlink" x="0px" y="0px"
	 width="64px" height="64px" viewBox="0 0 64 64" enable-background="new 0 0 64 64" xml:space="preserve">
<g>
	<path fill="#B3B3B3" d="M32.335,3.808L4.963,13.44l4.326,35.861l23.075,12.683L55.559,49.13l4.323-35.86L32.335,3.808z"/>
	<path fill="#A6120D" d="M57.151,15.343l-24.88-8.485v52.097l20.851-11.541L57.151,15.343L57.151,15.343z"/>
	<path fill="#DD1B16" d="M8.035,15.495l3.707,32.072l20.529,11.388V6.857L8.035,15.495L8.035,15.495z"/>
	<path fill="#F2F2F2" d="M39.12,34.591l-6.849,3.203h-7.218l-3.393,8.487l-6.312,0.117L32.271,8.75L39.12,34.591L39.12,34.591z
		 M38.458,32.979l-6.142-12.157L27.279,32.77h4.992L38.458,32.979L38.458,32.979z"/>
	<path fill="#B3B3B3" d="M32.271,8.75l0.046,12.072l5.716,11.957h-5.749l-0.013,5.008l7.949,0.008l3.715,8.605l6.039,0.111
		L32.271,8.75L32.271,8.75z"/>
</g>
</svg>
