<?xml version="1.0" encoding="utf-8"?>
<!-- Generator: Adobe Illustrator 16.0.0, SVG Export Plug-In . SVG Version: 6.00 Build 0)  -->
<!DOCTYPE svg PUBLIC "-//W3C//DTD SVG 1.1//EN" "http://www.w3.org/Graphics/SVG/1.1/DTD/svg11.dtd">
<svg version="1.1" id="Layer_1" xmlns="http://www.w3.org/2000/svg" xmlns:xlink="http://www.w3.org/1999/xlink" x="0px" y="0px"
	 width="64px" height="64px" viewBox="1218 1159.5 64 64" enable-background="new 1218 1159.5 64 64" xml:space="preserve">
<g>
	
		<linearGradient id="SVGID_1_" gradientUnits="userSpaceOnUse" x1="993.2188" y1="1447.7344" x2="993.2188" y2="1447.6951" gradientTransform="matrix(445.3907 0 0 -794.2871 -441124.25 1151093.25)">
		<stop  offset="0" style="stop-color:#0994DC"/>
		<stop  offset="0.35" style="stop-color:#66CEF5"/>
		<stop  offset="0.35" style="stop-color:#66CEF5"/>
		<stop  offset="0.8462" style="stop-color:#127BCA"/>
		<stop  offset="0.8462" style="stop-color:#127BCA"/>
		<stop  offset="1" style="stop-color:#127BCA"/>
	</linearGradient>
	<path fill="url(#SVGID_1_)" d="M1240.522,1181.357c2.29,7.004,3.158,19.498,9.855,19.498c0.509,0,1.026-0.05,1.542-0.148
		c-6.087-1.42-6.809-13.777-10.524-20.177C1241.099,1180.8,1240.808,1181.076,1240.522,1181.357"/>
	
		<linearGradient id="SVGID_2_" gradientUnits="userSpaceOnUse" x1="993.2095" y1="1447.709" x2="993.2095" y2="1447.6711" gradientTransform="matrix(467.4707 0 0 -814.5215 -463048.8438 1180366.625)">
		<stop  offset="0" style="stop-color:#0E76BC"/>
		<stop  offset="0.36" style="stop-color:#36AEE8"/>
		<stop  offset="0.36" style="stop-color:#36AEE8"/>
		<stop  offset="0.8462" style="stop-color:#00ADEF"/>
		<stop  offset="0.8462" style="stop-color:#00ADEF"/>
		<stop  offset="1" style="stop-color:#00ADEF"/>
	</linearGradient>
	<path fill="url(#SVGID_2_)" d="M1241.395,1180.53c3.715,6.4,4.437,18.757,10.524,20.177c0.479-0.088,0.959-0.221,1.439-0.389
		c-5.465-2.677-6.976-14.678-11.195-20.455C1241.903,1180.081,1241.647,1180.303,1241.395,1180.53"/>
	<path fill="#14559A" d="M1246.748,1176.724c-0.509,0-1.025,0.05-1.543,0.148c-1.355,0.255-2.732,0.839-4.12,1.722
		c0.379,0.374,0.74,0.802,1.079,1.27c1.412-1.171,2.813-2.037,4.211-2.557c0.51-0.19,1.035-0.337,1.57-0.437
		C1247.554,1176.771,1247.151,1176.722,1246.748,1176.724"/>
	
		<linearGradient id="SVGID_3_" gradientUnits="userSpaceOnUse" x1="992.5786" y1="1447.5361" x2="992.5786" y2="1447.5659" gradientTransform="matrix(443.8769 0 0 -825.1953 -439328.8125 1195700.25)">
		<stop  offset="0" style="stop-color:#1C63B7"/>
		<stop  offset="0.5" style="stop-color:#33BDF2"/>
		<stop  offset="1" style="stop-color:#33BDF2;stop-opacity:0.42"/>
	</linearGradient>
	<path fill="url(#SVGID_3_)" d="M1257.624,1197.851c0.582-0.465,1.143-0.956,1.68-1.473c-2.327-6.971-3.16-19.644-9.904-19.644
		c-0.482,0-0.969,0.045-1.454,0.135C1254.089,1178.397,1254.875,1191.763,1257.624,1197.851"/>
	<path fill="#3092C4" d="M1247.945,1176.869c-0.392-0.098-0.794-0.147-1.198-0.146l2.652,0.01
		C1248.917,1176.733,1248.431,1176.778,1247.945,1176.869"/>
	<path fill="#1969BC" d="M1257.506,1199.332c-0.264-0.252-0.515-0.527-0.761-0.822c-1.135,0.804-2.265,1.412-3.388,1.809
		c0.401,0.197,0.825,0.342,1.263,0.431c0.354,0.071,0.715,0.107,1.076,0.106c1.261,0,2.257-0.149,3.105-0.556
		C1258.335,1200.047,1257.906,1199.72,1257.506,1199.332"/>
	
		<linearGradient id="SVGID_4_" gradientUnits="userSpaceOnUse" x1="992.6958" y1="1447.5859" x2="992.6958" y2="1447.5481" gradientTransform="matrix(439.5606 0 0 -845.6836 -435097.75 1225372.375)">
		<stop  offset="0" style="stop-color:#166AB8"/>
		<stop  offset="0.4" style="stop-color:#36AEE8"/>
		<stop  offset="0.4" style="stop-color:#36AEE8"/>
		<stop  offset="0.8462" style="stop-color:#0798DD"/>
		<stop  offset="0.8462" style="stop-color:#0798DD"/>
		<stop  offset="1" style="stop-color:#0798DD"/>
	</linearGradient>
	<path fill="url(#SVGID_4_)" d="M1246.375,1177.307c5.502,2.878,5.98,15.911,10.371,21.203c0.299-0.211,0.592-0.431,0.877-0.659
		c-2.748-6.088-3.533-19.455-9.676-20.981C1247.411,1176.97,1246.885,1177.116,1246.375,1177.307"/>
	
		<linearGradient id="SVGID_5_" gradientUnits="userSpaceOnUse" x1="993.3911" y1="1447.6299" x2="993.3911" y2="1447.592" gradientTransform="matrix(569.834 0 0 -899.2383 -564818.875 1302937)">
		<stop  offset="0" style="stop-color:#124379"/>
		<stop  offset="0.39" style="stop-color:#1487CB"/>
		<stop  offset="0.39" style="stop-color:#1487CB"/>
		<stop  offset="0.7802" style="stop-color:#165197"/>
		<stop  offset="0.7802" style="stop-color:#165197"/>
		<stop  offset="1" style="stop-color:#165197"/>
	</linearGradient>
	<path fill="url(#SVGID_5_)" d="M1242.164,1179.863c4.219,5.777,5.729,17.778,11.195,20.455c1.123-0.396,2.253-1.005,3.387-1.809
		c-4.391-5.292-4.868-18.325-10.371-21.203C1244.978,1177.827,1243.575,1178.692,1242.164,1179.863"/>
	
		<linearGradient id="SVGID_6_" gradientUnits="userSpaceOnUse" x1="992.4365" y1="1447.1445" x2="992.4624" y2="1447.1445" gradientTransform="matrix(189.6387 0 0 -301.9629 -186968.6406 438167.25)">
		<stop  offset="0" style="stop-color:#33BDF2;stop-opacity:0.698"/>
		<stop  offset="1" style="stop-color:#1DACD8"/>
	</linearGradient>
	<path fill="url(#SVGID_6_)" d="M1237.823,1181.189c-0.661,1.495-1.337,3.46-2.153,6.026c1.624-2.288,3.243-4.26,4.853-5.857
		c-0.222-0.682-0.46-1.31-0.716-1.871C1239.115,1180.019,1238.453,1180.587,1237.823,1181.189"/>
	<path fill="#2B74B1" d="M1240.392,1179.056c-0.197,0.141-0.393,0.284-0.585,0.431c0.257,0.56,0.494,1.188,0.715,1.87
		c0.286-0.281,0.577-0.557,0.873-0.828C1241.083,1179.994,1240.752,1179.5,1240.392,1179.056"/>
	<path fill="#125A9E" d="M1241.085,1178.594c-0.234,0.149-0.465,0.303-0.693,0.461c0.36,0.444,0.691,0.938,1.003,1.475
		c0.251-0.228,0.508-0.45,0.769-0.667C1241.825,1179.396,1241.464,1178.968,1241.085,1178.594"/>
	
		<linearGradient id="SVGID_7_" gradientUnits="userSpaceOnUse" x1="992.6987" y1="1447.5811" x2="992.6987" y2="1447.6058" gradientTransform="matrix(772.8809 0 0 -963.6634 -765965.5625 1396180.625)">
		<stop  offset="0" style="stop-color:#136AB4"/>
		<stop  offset="0.6" style="stop-color:#59CAF5;stop-opacity:0.549"/>
		<stop  offset="1" style="stop-color:#59CAF5;stop-opacity:0.235"/>
	</linearGradient>
	<path fill="url(#SVGID_7_)" d="M1278.616,1176.19c-3.111,12.001-9.611,21.641-15.062,24.071h-0.01
		c-0.099,0.045-0.197,0.086-0.294,0.125c-0.014,0.009-0.026,0.01-0.036,0.015c-0.028,0.011-0.055,0.021-0.084,0.031
		c-0.014,0.009-0.025,0.012-0.037,0.016c-0.047,0.017-0.092,0.03-0.137,0.049c-0.02,0.008-0.037,0.013-0.056,0.02
		c-0.022,0.009-0.045,0.016-0.067,0.022c-0.021,0.008-0.042,0.014-0.065,0.022c-0.02,0.008-0.04,0.012-0.059,0.02
		c-0.04,0.012-0.076,0.021-0.116,0.035c-0.017,0-0.032,0.009-0.049,0.014c-0.025,0.008-0.053,0.014-0.079,0.021
		c-0.019,0.009-0.034,0.011-0.054,0.015c-0.027,0.009-0.058,0.016-0.085,0.022l-0.104,0.022c0.249,0.093,0.514,0.139,0.779,0.138
		c5.167,0,10.377-9.261,18.998-24.66h-3.385L1278.616,1176.19L1278.616,1176.19z"/>
	
		<linearGradient id="SVGID_8_" gradientUnits="userSpaceOnUse" x1="994.8755" y1="1447.6152" x2="994.9014" y2="1447.6152" gradientTransform="matrix(703.3398 0 0 -968.3691 -698517.4375 1403015.5)">
		<stop  offset="0" style="stop-color:#05A1E6;stop-opacity:0.247"/>
		<stop  offset="1" style="stop-color:#05A1E6"/>
	</linearGradient>
	<path fill="url(#SVGID_8_)" d="M1234.548,1177.21c0.003,0,0.007-0.008,0.009-0.008c0.004,0,0.01,0,0.012-0.008h0.006
		c0.029-0.01,0.055-0.021,0.084-0.032c0.007,0,0.011,0,0.017-0.008c0.007,0,0.014-0.008,0.021-0.009
		c0.03-0.01,0.061-0.021,0.09-0.032h0.005c0.068-0.021,0.132-0.046,0.198-0.07c0.01,0,0.019-0.008,0.03-0.008
		c0.028-0.009,0.057-0.019,0.085-0.025c0.013-0.008,0.027-0.008,0.039-0.013c0.029-0.009,0.058-0.019,0.085-0.025
		c0.013,0,0.023-0.008,0.033-0.009c0.095-0.026,0.189-0.051,0.284-0.073c0.013,0,0.024-0.008,0.039-0.009
		c0.027-0.008,0.053-0.012,0.083-0.016c0.013-0.008,0.027-0.008,0.041-0.013c0.027-0.008,0.054-0.009,0.084-0.015h0.019
		c0.058-0.012,0.116-0.021,0.173-0.032h0.035c0.028-0.008,0.052-0.009,0.08-0.014c0.015,0,0.03-0.008,0.045-0.008
		c0.025,0,0.051-0.008,0.077-0.011c0.013,0,0.026,0,0.042-0.008c0.061-0.008,0.123-0.011,0.186-0.017
		c-0.183-0.018-0.366-0.028-0.55-0.028c-5.819,0-13.837,10.797-17.448,24.78h0.696c1.156-2.062,2.194-4.012,3.144-5.842
		c2.529-9.904,7.681-16.659,12.257-18.448"/>
	<path fill="#0D82CA" d="M1237.823,1181.189c0.63-0.603,1.292-1.171,1.982-1.702c-0.14-0.313-0.298-0.617-0.472-0.913
		C1238.801,1179.221,1238.315,1180.073,1237.823,1181.189"/>
	<path fill="#0D82CA" d="M1238.301,1177.292c0.38,0.319,0.721,0.757,1.032,1.283c0.098-0.121,0.197-0.232,0.3-0.336
		c-0.432-0.403-0.899-0.734-1.406-0.984c0.021,0.011,0.041,0.021,0.063,0.029C1238.29,1177.284,1238.298,1177.292,1238.301,1177.292
		"/>
	
		<linearGradient id="SVGID_9_" gradientUnits="userSpaceOnUse" x1="994.7598" y1="1447.4951" x2="994.7598" y2="1447.5291" gradientTransform="matrix(479.0137 0 0 -720.9277 -475274.875 1044739.375)">
		<stop  offset="0" style="stop-color:#318ED5"/>
		<stop  offset="1" style="stop-color:#38A7E4"/>
	</linearGradient>
	<path fill="url(#SVGID_9_)" d="M1222.29,1195.658c5.306-10.225,7.82-16.696,12.258-18.448
		C1229.972,1179.001,1224.819,1185.755,1222.29,1195.658"/>
	<path fill="#127BCA" d="M1239.634,1178.239c-0.104,0.105-0.201,0.215-0.3,0.336c0.174,0.295,0.332,0.6,0.473,0.912
		c0.193-0.146,0.388-0.291,0.586-0.431C1240.159,1178.767,1239.905,1178.493,1239.634,1178.239"/>
	
		<linearGradient id="SVGID_10_" gradientUnits="userSpaceOnUse" x1="994.6089" y1="1448.0479" x2="994.6089" y2="1448.0905" gradientTransform="matrix(445.3516 0 0 -557.8906 -441720.375 809052.625)">
		<stop  offset="0" style="stop-color:#05A1E6"/>
		<stop  offset="1" style="stop-color:#05A1E6;stop-opacity:0.549"/>
	</linearGradient>
	<path fill="url(#SVGID_10_)" d="M1224.699,1201.454c-0.033,0.009-0.065,0.009-0.096,0.012h-0.018c-0.028,0-0.057,0.008-0.082,0.008
		h-0.013c-0.066,0.009-0.132,0.009-0.195,0.014h-0.021c5.371-0.15,7.825-2.84,9.044-6.739c0.926-2.957,1.686-5.448,2.353-7.538
		c-2.25,3.167-4.509,6.941-6.781,11.168c-1.095,2.038-2.761,2.889-4.19,3.071"/>
	
		<linearGradient id="SVGID_11_" gradientUnits="userSpaceOnUse" x1="994.5645" y1="1447.7354" x2="994.5645" y2="1447.7607" gradientTransform="matrix(512.8906 0 0 -791.9336 -508871.4688 1147711.375)">
		<stop  offset="0" style="stop-color:#1959A6"/>
		<stop  offset="0.5" style="stop-color:#05A1E6"/>
		<stop  offset="0.5" style="stop-color:#05A1E6"/>
		<stop  offset="0.9176" style="stop-color:#7EC5EA"/>
		<stop  offset="1" style="stop-color:#7EC5EA"/>
	</linearGradient>
	<path fill="url(#SVGID_11_)" d="M1224.699,1201.452c1.429-0.182,3.095-1.032,4.19-3.071c2.272-4.227,4.533-8.002,6.78-11.168
		c0.817-2.566,1.492-4.53,2.154-6.025c-4.479,4.264-8.977,11.353-13.125,20.263"/>
	<path fill="#05A1E6" d="M1222.29,1195.659c-0.95,1.83-1.988,3.779-3.144,5.841h2.024
		C1221.426,1199.533,1221.8,1197.582,1222.29,1195.659"/>
	
		<linearGradient id="SVGID_12_" gradientUnits="userSpaceOnUse" x1="994.7412" y1="1447.6055" x2="994.7357" y2="1447.6285" gradientTransform="matrix(709.7363 0 0 -966.8456 -704772.25 1400810.875)">
		<stop  offset="0" style="stop-color:#165096"/>
		<stop  offset="1" style="stop-color:#0D82CA"/>
	</linearGradient>
	<path fill="url(#SVGID_12_)" d="M1236.263,1176.769c-0.017,0-0.029,0.008-0.043,0.008c-0.024,0.008-0.05,0.008-0.076,0.011
		c-0.015,0-0.03,0-0.045,0.008c-0.027,0.008-0.053,0.009-0.08,0.014c-0.013,0-0.025,0-0.035,0.008
		c-0.058,0.01-0.115,0.021-0.172,0.03h-0.02c-0.03,0.008-0.056,0.012-0.084,0.016c-0.014,0.008-0.028,0.008-0.042,0.012
		c-0.027,0.008-0.055,0.011-0.082,0.016c-0.014,0.008-0.025,0.008-0.039,0.009c-0.095,0.023-0.189,0.047-0.284,0.074
		c-0.01,0-0.021,0.008-0.033,0.01c-0.029,0.008-0.056,0.016-0.086,0.025c-0.013,0.008-0.027,0.008-0.039,0.011
		c-0.028,0.008-0.057,0.017-0.085,0.025c-0.011,0-0.02,0.008-0.03,0.008c-0.065,0.025-0.13,0.049-0.197,0.07
		c-0.029,0.009-0.06,0.021-0.09,0.031c-0.012,0.008-0.023,0.01-0.037,0.015c-0.029,0.009-0.058,0.021-0.084,0.031
		c-0.01,0.008-0.021,0.009-0.028,0.013c-4.438,1.752-6.952,8.223-12.258,18.448c-0.49,1.923-0.864,3.873-1.119,5.841h0.284
		c0.8,0,1.026-0.008,1.947-0.008h0.893c0.063-0.009,0.128-0.009,0.195-0.014h0.013c0.027,0,0.055-0.008,0.082-0.008h0.02
		c0.029,0,0.063-0.008,0.096-0.012c4.148-8.91,8.645-16,13.125-20.263c0.492-1.116,0.978-1.968,1.509-2.613
		c-0.311-0.525-0.651-0.965-1.031-1.284c0,0-0.01,0-0.011-0.008c-0.022-0.009-0.042-0.02-0.064-0.03
		c-0.021-0.012-0.04-0.021-0.062-0.032c-0.021-0.009-0.042-0.019-0.062-0.029c-0.026-0.008-0.048-0.02-0.071-0.03
		c-0.02-0.008-0.037-0.017-0.056-0.024c-0.04-0.016-0.079-0.032-0.118-0.049c-0.018-0.008-0.034-0.013-0.05-0.019
		c-0.03-0.011-0.059-0.022-0.088-0.035c-0.014-0.008-0.03-0.01-0.047-0.016c-0.042-0.014-0.083-0.029-0.122-0.042h-0.01
		c-0.047-0.015-0.093-0.027-0.141-0.04c-0.011-0.008-0.021-0.008-0.032-0.01c-0.042-0.011-0.079-0.022-0.118-0.033
		c-0.01,0-0.02-0.008-0.027-0.008c-0.098-0.025-0.197-0.046-0.296-0.064c-0.01,0-0.02-0.008-0.03-0.008
		c-0.042-0.008-0.085-0.015-0.128-0.021c-0.01-0.008-0.017-0.008-0.025-0.008c-0.05-0.008-0.101-0.015-0.151-0.02h-0.026
		c-0.041-0.008-0.079-0.009-0.117-0.013c-0.064,0.008-0.125,0.011-0.186,0.017"/>
	
		<linearGradient id="SVGID_13_" gradientUnits="userSpaceOnUse" x1="989.9312" y1="1447.3359" x2="989.9312" y2="1447.3563" gradientTransform="matrix(319.9902 0 0 -558.8477 -315500.25 810028.375)">
		<stop  offset="0" style="stop-color:#05A1E6"/>
		<stop  offset="0.8736" style="stop-color:#0495D6"/>
		<stop  offset="1" style="stop-color:#0495D6"/>
	</linearGradient>
	<path fill="url(#SVGID_13_)" d="M1266.461,1182.834c-1.021,3.271-1.848,5.968-2.567,8.188c2.801-3.855,5.561-8.705,8.188-14.301
		C1269.017,1177.685,1267.382,1179.888,1266.461,1182.834"/>
	
		<linearGradient id="SVGID_14_" gradientUnits="userSpaceOnUse" x1="992.0488" y1="1447.5967" x2="992.041" y2="1447.5688" gradientTransform="matrix(588.5743 0 0 -940.6543 -582620.625 1362863.375)">
		<stop  offset="0" style="stop-color:#38A7E4;stop-opacity:0.329"/>
		<stop  offset="0.9615" style="stop-color:#0E88D3"/>
		<stop  offset="0.9615" style="stop-color:#0E88D3"/>
		<stop  offset="1" style="stop-color:#0E88D3"/>
	</linearGradient>
	<path fill="url(#SVGID_14_)" d="M1263.982,1200.057c-0.143,0.073-0.286,0.143-0.428,0.205c5.45-2.431,11.95-12.07,15.062-24.071
		h-0.631C1270.836,1188.962,1268.536,1197.513,1263.982,1200.057"/>
	<path fill="#079AE1" d="M1260.424,1198.984c1.186-1.447,2.151-3.907,3.47-7.962c-1.521,2.089-3.052,3.885-4.584,5.35
		c0,0.008,0,0.008-0.008,0.013c0.334,1.002,0.701,1.886,1.119,2.6"/>
	<path fill="#1969BC" d="M1260.424,1198.984c-0.403,0.492-0.831,0.867-1.306,1.146c-0.104,0.061-0.209,0.117-0.316,0.17
		c0.515,0.279,1.079,0.457,1.662,0.523c0.09,0.01,0.179,0.018,0.271,0.024h0.017c0.042,0,0.086,0,0.131,0.008h0.443
		c0.017,0,0.033,0,0.05-0.008c0.032,0,0.065,0,0.099-0.009h0.048c0.033,0,0.07-0.008,0.106-0.012h0.008
		c0.011,0,0.022-0.008,0.033-0.008c0.037-0.008,0.077-0.011,0.113-0.017h0.033c0.042-0.008,0.085-0.014,0.128-0.021h0.021
		c0.086-0.017,0.17-0.032,0.255-0.054c-0.703-0.258-1.292-0.865-1.799-1.729"/>
	<path fill="#1E5CB3" d="M1250.377,1200.855c0.51,0,1.026-0.05,1.542-0.149c0.479-0.087,0.958-0.22,1.438-0.388
		c0.4,0.197,0.824,0.342,1.262,0.431c0.354,0.072,0.715,0.107,1.077,0.106H1250.377z"/>
	<path fill="#1E5CB3" d="M1255.697,1200.855c1.259,0,2.257-0.149,3.104-0.556c0.516,0.279,1.08,0.457,1.663,0.524
		c0.09,0.009,0.179,0.017,0.271,0.023h0.017c0.042,0,0.086,0,0.131,0.008h0.153h-5.342H1255.697L1255.697,1200.855z"/>
	<path fill="#1D60B5" d="M1261.039,1200.855h0.291c0.018,0,0.033,0,0.05-0.008c0.032,0,0.065,0,0.1-0.009h0.048
		c0.034,0,0.07-0.008,0.105-0.011h0.009c0.011,0,0.021-0.008,0.032-0.008c0.037-0.009,0.077-0.012,0.113-0.018
		c0.013,0,0.022,0,0.035-0.008c0.042-0.009,0.085-0.013,0.128-0.021h0.021c0.086-0.017,0.17-0.033,0.254-0.054
		c0.25,0.092,0.514,0.138,0.78,0.137l-1.965,0.008L1261.039,1200.855z"/>
	<path fill="#175FAB" d="M1259.306,1196.385v-0.008c-0.538,0.517-1.098,1.008-1.681,1.473c-0.286,0.229-0.579,0.448-0.878,0.659
		c0.246,0.295,0.496,0.57,0.761,0.822c0.4,0.388,0.829,0.715,1.296,0.967c0.105-0.052,0.212-0.108,0.315-0.169
		c0.477-0.278,0.903-0.653,1.308-1.146c-0.418-0.714-0.785-1.598-1.119-2.6"/>
	
		<linearGradient id="SVGID_15_" gradientUnits="userSpaceOnUse" x1="992.5698" y1="1447.6035" x2="992.5698" y2="1447.5765" gradientTransform="matrix(686.3376 0 0 -958.1152 -679968.8125 1388146.75)">
		<stop  offset="0" style="stop-color:#168CD4"/>
		<stop  offset="0.5" style="stop-color:#1C87CC"/>
		<stop  offset="1" style="stop-color:#154B8D"/>
	</linearGradient>
	<path fill="url(#SVGID_15_)" d="M1275.989,1176.19h-3.175c-0.171,0.008-0.338,0.014-0.502,0.024
		c-0.078,0.167-0.157,0.333-0.234,0.501c-2.627,5.596-5.387,10.446-8.188,14.301c-1.317,4.054-2.284,6.515-3.47,7.961
		c0.507,0.865,1.097,1.473,1.798,1.73c0.021-0.008,0.037-0.008,0.056-0.012h0.011c0.013,0,0.026-0.009,0.039-0.009
		c0.028-0.008,0.06-0.013,0.088-0.021c0.019-0.009,0.033-0.009,0.052-0.016c0.027-0.008,0.055-0.014,0.079-0.02
		c0.017-0.009,0.032-0.011,0.049-0.015c0.041-0.013,0.078-0.022,0.117-0.035c0.018-0.008,0.037-0.015,0.058-0.02
		c0.022-0.008,0.045-0.014,0.065-0.023c0.023-0.009,0.047-0.013,0.067-0.021c0.019-0.008,0.038-0.013,0.056-0.021
		c0.046-0.017,0.091-0.03,0.137-0.048c0.013,0,0.024-0.012,0.038-0.015c0.027-0.011,0.056-0.021,0.084-0.032
		c0.01-0.008,0.022-0.009,0.035-0.014c0.097-0.039,0.195-0.08,0.295-0.125h0.01c0.144-0.064,0.286-0.133,0.427-0.205
		c4.555-2.544,6.854-11.094,14.004-23.866h-1.997L1275.989,1176.19L1275.989,1176.19z"/>
	<path fill="#7DCBEC" d="M1236.449,1176.751c0.011,0,0.021,0,0.033,0.008c0.028,0,0.056,0,0.083,0.009h0.027
		c0.05,0.008,0.1,0.013,0.151,0.02c0.009,0,0.018,0,0.025,0.008c0.042,0.008,0.085,0.015,0.128,0.021
		c0.009,0,0.021,0.008,0.032,0.008c0.098,0.02,0.198,0.04,0.294,0.065c0.009,0,0.019,0.008,0.026,0.008
		c0.041,0.01,0.078,0.022,0.119,0.033c0.013,0,0.021,0.008,0.033,0.01c0.048,0.012,0.093,0.024,0.14,0.04
		c0.002,0,0.005,0,0.011,0.008c0.04,0.012,0.081,0.028,0.123,0.042c0.017,0.008,0.032,0.012,0.047,0.016
		c0.029,0.013,0.061,0.024,0.088,0.036c0.016,0,0.032,0.011,0.05,0.018c0.038,0.017,0.078,0.032,0.116,0.049
		c0.021,0.008,0.038,0.017,0.058,0.024c0.022,0.012,0.046,0.022,0.07,0.03c0.021,0.01,0.043,0.02,0.063,0.029
		c0.021,0.012,0.042,0.021,0.063,0.032c0.507,0.249,0.974,0.581,1.406,0.984c0.155-0.163,0.321-0.314,0.499-0.453
		c-0.945-0.671-2.017-1.053-3.252-1.053c-0.144,0-0.286,0.008-0.432,0.019"/>
	<path fill="#5EC5ED" d="M1239.634,1178.239c0.271,0.254,0.525,0.528,0.758,0.817c0.227-0.159,0.458-0.313,0.693-0.462
		c-0.294-0.296-0.613-0.567-0.954-0.809C1239.954,1177.924,1239.788,1178.075,1239.634,1178.239"/>
	
		<linearGradient id="SVGID_16_" gradientUnits="userSpaceOnUse" x1="993.2422" y1="1455.6387" x2="993.261" y2="1455.6981" gradientTransform="matrix(316.9922 0 0 41.5039 -313612.7188 -59239.1875)">
		<stop  offset="0" style="stop-color:#97D6EE"/>
		<stop  offset="0.7033" style="stop-color:#55C1EA"/>
		<stop  offset="1" style="stop-color:#55C1EA"/>
	</linearGradient>
	<path fill="url(#SVGID_16_)" d="M1236.449,1176.751c0.145-0.012,0.288-0.018,0.431-0.018c1.235,0,2.307,0.382,3.252,1.052
		c0.998-0.788,2.204-1.063,3.878-1.063h-8.112C1236.086,1176.724,1236.269,1176.735,1236.449,1176.751"/>
	
		<linearGradient id="SVGID_17_" gradientUnits="userSpaceOnUse" x1="992.3306" y1="1451.9463" x2="992.3483" y2="1451.918" gradientTransform="matrix(258.5156 0 0 73.0859 -255292.3594 -104938.375)">
		<stop  offset="0" style="stop-color:#7ACCEC"/>
		<stop  offset="1" style="stop-color:#3FB7ED"/>
	</linearGradient>
	<path fill="url(#SVGID_17_)" d="M1244.01,1176.724c-1.675,0-2.881,0.275-3.878,1.063c0.34,0.242,0.659,0.512,0.953,0.808
		c1.389-0.883,2.765-1.468,4.121-1.723c0.508-0.097,1.024-0.146,1.542-0.147H1244.01L1244.01,1176.724z"/>
	
		<linearGradient id="SVGID_18_" gradientUnits="userSpaceOnUse" x1="991.9712" y1="1447.5176" x2="991.9712" y2="1447.4855" gradientTransform="matrix(508.2521 0 0 -787.4512 -502905.6875 1141026.75)">
		<stop  offset="0" style="stop-color:#1DA7E7"/>
		<stop  offset="1" style="stop-color:#37ABE7;stop-opacity:0"/>
	</linearGradient>
	<path fill="url(#SVGID_18_)" d="M1263.894,1191.024c0.721-2.222,1.545-4.918,2.568-8.19c0.922-2.948,2.554-5.151,5.619-6.113
		c0.081-0.165,0.157-0.334,0.235-0.5c-4.996,0.299-7.331,2.841-8.507,6.605c-2.055,6.571-3.3,10.831-4.499,13.546
		C1260.842,1194.908,1262.373,1193.111,1263.894,1191.024"/>
	<path d="M1269.858,1199.104v-0.209 M1273.254,1198.896h0.29"/>
</g>
</svg>
