<?xml version="1.0" encoding="utf-8"?>
<!-- Generator: Adobe Illustrator 16.0.0, SVG Export Plug-In . SVG Version: 6.00 Build 0)  -->
<!DOCTYPE svg PUBLIC "-//W3C//DTD SVG 1.1//EN" "http://www.w3.org/Graphics/SVG/1.1/DTD/svg11.dtd">
<svg version="1.1" id="Layer_1" xmlns="http://www.w3.org/2000/svg" xmlns:xlink="http://www.w3.org/1999/xlink" x="0px" y="0px"
	 width="64px" height="64px" viewBox="0 0 64 64" enable-background="new 0 0 64 64" xml:space="preserve">
<g>
	<path fill="#8CC84B" d="M30.057,5.767c1.395-0.798,3.212-0.801,4.606,0c7.012,3.962,14.026,7.918,21.036,11.883
		c1.318,0.743,2.201,2.21,2.188,3.73v23.837c0.01,1.582-0.959,3.085-2.351,3.812c-6.989,3.939-13.974,7.885-20.962,11.824
		c-1.424,0.814-3.278,0.752-4.656-0.13c-2.095-1.214-4.194-2.422-6.29-3.636c-0.428-0.255-0.911-0.459-1.213-0.873
		c0.268-0.36,0.746-0.406,1.134-0.563c0.875-0.277,1.677-0.724,2.481-1.157c0.203-0.14,0.452-0.086,0.646,0.039
		c1.792,1.026,3.567,2.084,5.365,3.102c0.384,0.222,0.772-0.072,1.1-0.255c6.858-3.877,13.725-7.738,20.581-11.615
		c0.255-0.123,0.396-0.392,0.375-0.671c0.005-7.863,0.001-15.728,0.002-23.591c0.029-0.316-0.153-0.606-0.438-0.735
		c-6.965-3.922-13.926-7.851-20.89-11.773c-0.247-0.17-0.573-0.17-0.82-0.002c-6.963,3.925-13.923,7.856-20.887,11.779
		c-0.284,0.129-0.476,0.415-0.442,0.732c0.001,7.863,0,15.728,0,23.593c-0.024,0.277,0.126,0.542,0.378,0.661
		c1.859,1.054,3.72,2.1,5.579,3.151c1.048,0.563,2.333,0.898,3.488,0.467c1.019-0.365,1.732-1.405,1.713-2.486
		c0.009-7.817-0.005-15.637,0.007-23.453c-0.026-0.347,0.303-0.634,0.641-0.601c0.893-0.006,1.787-0.012,2.68,0.002
		c0.373-0.009,0.629,0.365,0.583,0.715c-0.003,7.867,0.01,15.734-0.006,23.602c0.003,2.096-0.859,4.378-2.798,5.403
		c-2.389,1.238-5.342,0.976-7.703-0.212c-2.043-1.019-3.993-2.224-6-3.314c-1.396-0.723-2.36-2.231-2.35-3.812V21.379
		c-0.015-1.551,0.902-3.045,2.263-3.777C16.084,13.659,23.071,9.712,30.057,5.767z"/>
	<path fill="#8CC84B" d="M36.153,22.279c3.047-0.196,6.31-0.116,9.053,1.385c2.123,1.15,3.3,3.565,3.338,5.924
		c-0.061,0.318-0.392,0.494-0.695,0.472c-0.886-0.001-1.77,0.012-2.653-0.006c-0.376,0.014-0.594-0.332-0.641-0.663
		c-0.254-1.129-0.869-2.247-1.932-2.791c-1.632-0.816-3.522-0.775-5.301-0.759c-1.297,0.069-2.693,0.182-3.794,0.945
		c-0.843,0.578-1.101,1.746-0.799,2.686c0.284,0.675,1.064,0.893,1.702,1.094c3.673,0.961,7.564,0.865,11.167,2.129
		c1.492,0.516,2.951,1.518,3.462,3.079c0.667,2.093,0.374,4.595-1.114,6.275c-1.208,1.382-2.967,2.136-4.721,2.543
		c-2.334,0.521-4.756,0.534-7.125,0.303c-2.229-0.253-4.548-0.839-6.269-2.357c-1.471-1.277-2.19-3.268-2.118-5.188
		c0.016-0.324,0.339-0.551,0.65-0.524c0.89-0.007,1.781-0.009,2.671,0.002c0.355-0.025,0.619,0.282,0.637,0.617
		c0.165,1.075,0.569,2.203,1.506,2.841c1.811,1.169,4.081,1.088,6.153,1.121c1.717-0.077,3.644-0.1,5.045-1.234
		c0.738-0.647,0.958-1.73,0.758-2.662c-0.216-0.785-1.039-1.152-1.745-1.393c-3.625-1.146-7.561-0.729-11.151-2.026
		c-1.458-0.516-2.868-1.49-3.428-2.988c-0.782-2.119-0.423-4.741,1.221-6.365C31.635,23.124,33.951,22.502,36.153,22.279
		L36.153,22.279z"/>
</g>
</svg>
