<?xml version="1.0" encoding="utf-8"?>
<!-- Generator: Adobe Illustrator 16.0.0, SVG Export Plug-In . SVG Version: 6.00 Build 0)  -->
<!DOCTYPE svg PUBLIC "-//W3C//DTD SVG 1.1//EN" "http://www.w3.org/Graphics/SVG/1.1/DTD/svg11.dtd">
<svg version="1.1" id="Layer_1" xmlns="http://www.w3.org/2000/svg" xmlns:xlink="http://www.w3.org/1999/xlink" x="0px" y="0px"
	 width="64px" height="64px" viewBox="0 0 64 64" enable-background="new 0 0 64 64" xml:space="preserve">
<g opacity="0.6">
	<path fill="#48AFEF" d="M55.081,17.735c-1.826,0-4.068-1.294-4.981-2.876s-0.913-4.17,0-5.752s3.155-2.876,4.981-2.876
		c1.827,0,4.069,1.294,4.982,2.876c0.912,1.582,0.912,4.17,0,5.752C59.15,16.441,56.908,17.735,55.081,17.735z"/>
</g>
<g opacity="0.6">
	<path fill="#48AFEF" d="M10.759,21.591c-1.65,0-3.675-1.169-4.5-2.598l-2.032-3.52c-0.825-1.429-0.825-3.767,0-5.196l2.032-3.521
		c0.825-1.429,2.85-2.598,4.5-2.598h4.065c1.65,0,3.675,1.169,4.5,2.598l2.032,3.521c0.825,1.429,0.825,3.767,0,5.196l-2.032,3.52
		c-0.825,1.429-2.85,2.598-4.5,2.598H10.759z"/>
</g>
<g opacity="0.6">
	<path fill="#48AFEF" d="M54.176,49.283c-0.889,0-1.98-0.631-2.425-1.4c-0.444-0.771-0.444-2.031,0-2.801s1.536-1.4,2.425-1.4
		s1.98,0.631,2.425,1.4c0.445,0.77,0.445,2.029,0,2.801C56.156,48.652,55.064,49.283,54.176,49.283z"/>
</g>
<g opacity="0.6">
	<path fill="#48AFEF" d="M30.843,54.426c-0.436,0-0.97-0.309-1.188-0.686s-0.218-0.994,0-1.371c0.218-0.379,0.752-0.688,1.188-0.688
		s0.97,0.309,1.188,0.688c0.218,0.377,0.218,0.994,0,1.371S31.279,54.426,30.843,54.426z"/>
</g>
<g>
	<path fill="#48AFEF" d="M24.416,48.258c-1.65,0-3.675-1.169-4.5-2.598l-8.167-14.146c-0.825-1.429-0.825-3.767,0-5.196
		l8.167-14.146c0.825-1.429,2.85-2.598,4.5-2.598H40.75c1.65,0,3.675,1.169,4.5,2.598l8.167,14.146c0.825,1.429,0.825,3.767,0,5.196
		L45.25,45.66c-0.825,1.429-2.85,2.598-4.5,2.598H24.416z"/>
</g>
<g>
	<path fill="#FFFFFF" d="M25.592,46.222c-1.65,0-3.675-1.169-4.5-2.598l-6.991-12.109c-0.825-1.429-0.825-3.767,0-5.196
		l6.991-12.109c0.825-1.429,2.85-2.598,4.5-2.598h13.982c1.65,0,3.675,1.169,4.5,2.598l6.991,12.109
		c0.825,1.429,0.825,3.767,0,5.196l-6.991,12.109c-0.825,1.429-2.85,2.598-4.5,2.598H25.592z"/>
</g>
<g opacity="0.6">
	<path fill="#48AFEF" d="M41.701,61.1c-0.227,0-0.504-0.16-0.617-0.355c-0.113-0.197-0.113-0.518,0-0.713s0.391-0.355,0.617-0.355
		s0.504,0.16,0.616,0.355c0.113,0.195,0.113,0.516,0,0.713C42.205,60.939,41.928,61.1,41.701,61.1z"/>
</g>
<g>
	<path fill="#B3B3B3" d="M29.865,12.276l-8.479,2.984l1.34,11.11l7.149,3.93l7.186-3.982l1.339-11.11L29.865,12.276z"/>
	<path fill="#A6120D" d="M37.554,15.849l-7.708-2.629v16.141l6.461-3.576L37.554,15.849L37.554,15.849z"/>
	<path fill="#DD1B16" d="M22.337,15.896l1.148,9.937l6.361,3.528V13.22L22.337,15.896L22.337,15.896z"/>
	<path fill="#F2F2F2" d="M31.968,21.813l-2.122,0.993h-2.237l-1.051,2.629l-1.956,0.036l5.244-11.665L31.968,21.813L31.968,21.813z
		 M31.763,21.312l-1.902-3.766l-1.561,3.702h1.547l1.917,0.066V21.312z"/>
	<path fill="#B3B3B3" d="M29.846,13.806l0.014,3.74l1.77,3.704h-1.78l-0.003,1.552l2.462,0.003l1.15,2.666l1.872,0.035
		L29.846,13.806L29.846,13.806z"/>
</g>
<g>
	<path fill="#8CC84B" d="M43.137,22.324c0.314-0.179,0.726-0.181,1.039,0c1.585,0.896,3.168,1.79,4.751,2.684
		c0.298,0.168,0.497,0.5,0.494,0.842v5.383c0.003,0.356-0.215,0.696-0.531,0.86c-1.577,0.891-3.154,1.782-4.733,2.67
		c-0.32,0.186-0.738,0.17-1.051-0.029c-0.473-0.273-0.947-0.547-1.42-0.82c-0.097-0.059-0.205-0.104-0.273-0.197
		c0.06-0.082,0.168-0.094,0.255-0.127c0.198-0.064,0.38-0.164,0.56-0.262c0.047-0.031,0.104-0.02,0.146,0.008
		c0.404,0.23,0.806,0.471,1.212,0.701c0.088,0.049,0.176-0.018,0.25-0.057c1.548-0.877,3.099-1.749,4.647-2.624
		c0.056-0.028,0.088-0.089,0.084-0.152c0.001-1.775,0-3.551,0-5.328c0.007-0.07-0.035-0.136-0.098-0.164
		c-1.572-0.886-3.146-1.773-4.718-2.66c-0.056-0.038-0.129-0.038-0.187,0c-1.57,0.886-3.144,1.774-4.716,2.66
		c-0.063,0.029-0.106,0.093-0.099,0.164c0,1.777,0,3.553,0,5.328c-0.007,0.063,0.028,0.124,0.085,0.148
		c0.42,0.238,0.841,0.475,1.259,0.713c0.238,0.127,0.527,0.203,0.789,0.105c0.229-0.082,0.39-0.318,0.387-0.563
		c0.002-1.764-0.002-3.529,0.002-5.294c-0.008-0.078,0.066-0.144,0.145-0.136c0.201-0.001,0.401-0.002,0.604,0
		c0.083-0.001,0.143,0.083,0.132,0.162c-0.003,1.776,0.001,3.553-0.003,5.331c0,0.471-0.193,0.986-0.631,1.219
		c-0.54,0.28-1.206,0.221-1.738-0.047c-0.462-0.23-0.902-0.504-1.356-0.75c-0.314-0.164-0.531-0.504-0.529-0.86V25.85
		c-0.003-0.35,0.204-0.688,0.511-0.853C39.982,24.107,41.56,23.215,43.137,22.324z"/>
	<path fill="#8CC84B" d="M44.514,26.054c0.688-0.045,1.425-0.026,2.044,0.312c0.479,0.26,0.745,0.805,0.753,1.338
		c-0.014,0.073-0.087,0.112-0.156,0.106c-0.2,0-0.4,0.002-0.599-0.001c-0.086,0.003-0.135-0.075-0.145-0.149
		c-0.058-0.255-0.195-0.508-0.437-0.63c-0.37-0.185-0.796-0.176-1.197-0.172c-0.293,0.016-0.608,0.042-0.857,0.214
		c-0.189,0.131-0.248,0.394-0.179,0.606c0.063,0.153,0.239,0.202,0.383,0.248c0.829,0.216,1.709,0.195,2.523,0.48
		c0.336,0.116,0.665,0.342,0.78,0.695c0.149,0.473,0.085,1.038-0.251,1.417c-0.274,0.313-0.671,0.483-1.067,0.575
		c-0.526,0.117-1.072,0.12-1.607,0.067c-0.505-0.057-1.027-0.189-1.417-0.532c-0.333-0.289-0.493-0.738-0.479-1.173
		c0.004-0.072,0.078-0.124,0.148-0.117c0.201-0.001,0.401-0.002,0.602,0c0.083-0.005,0.141,0.063,0.146,0.14
		c0.038,0.243,0.13,0.498,0.341,0.641c0.407,0.265,0.921,0.246,1.388,0.253c0.388-0.017,0.821-0.022,1.139-0.279
		c0.167-0.146,0.218-0.391,0.173-0.6c-0.05-0.179-0.235-0.261-0.395-0.315c-0.819-0.259-1.708-0.165-2.518-0.458
		c-0.329-0.117-0.647-0.336-0.775-0.675c-0.176-0.478-0.094-1.07,0.277-1.437C43.494,26.243,44.017,26.104,44.514,26.054
		L44.514,26.054z"/>
</g>
<g>
	<circle fill="#E8BA67" cx="22.796" cy="34.936" r="5.476"/>
	<text transform="matrix(1 0 0 1 19.5234 37.7852)" fill="#FFFFFF" font-family="'neo-latina'" font-size="9.2456">E</text>
</g>
<g>
	<path fill="#FFFFFF" d="M29.416,45.957l-0.257-0.336c0,0,1.167-1.672,0.638-2.199c-0.093-0.742,13.337-19.979,1.575,0.949
		c0,0-0.674-0.082-1.048,0.291C29.945,45.02,29.416,45.957,29.416,45.957L29.416,45.957z"/>
	<path fill="#A6A385" d="M29.416,45.957l-0.257-0.336c0,0,1.167-1.672,0.638-2.199c-0.093-0.742,13.337-19.979,1.575,0.949
		c0,0-0.674-0.082-1.048,0.291C29.945,45.02,29.416,45.957,29.416,45.957L29.416,45.957z"/>
	<path fill="#FFFFFF" d="M30.686,44.434c0,0,4.195,0.016,6.16-4.436c1.268-3.342,0.343-5.324,0.415-5.805
		c-0.015-0.383,0.109-0.957,0.109-0.957l-5.235,8.16C32.13,41.406,30.243,43.705,30.686,44.434"/>
	<path fill="#499D4A" d="M30.686,44.434c0,0,4.195,0.016,6.16-4.436c1.268-3.342,0.343-5.324,0.415-5.805
		c-0.015-0.383,0.109-0.957,0.109-0.957l-5.235,8.16C32.13,41.406,30.243,43.705,30.686,44.434"/>
	<path fill="#FFFFFF" d="M29.931,44.084c0,0-1.503-3.689,0.847-6.879c2.34-3.193,5.35-3.529,5.919-3.572
		c0.417-0.1,0.489-0.193,0.678-0.441c-0.071,0.48-3.492,5.568-3.866,6.188C32.043,41.748,30.411,43.77,29.931,44.084z"/>
	<path fill="#58AA50" d="M29.931,44.084c0,0-1.503-3.689,0.847-6.879c2.34-3.193,5.35-3.529,5.919-3.572
		c0.417-0.1,0.489-0.193,0.678-0.441c-0.071,0.48-3.492,5.568-3.866,6.188C32.043,41.748,30.411,43.77,29.931,44.084z"/>
</g>
</svg>
