<?xml version="1.0" encoding="utf-8"?>
<!-- Generator: Adobe Illustrator 16.0.0, SVG Export Plug-In . SVG Version: 6.00 Build 0)  -->
<!DOCTYPE svg PUBLIC "-//W3C//DTD SVG 1.1//EN" "http://www.w3.org/Graphics/SVG/1.1/DTD/svg11.dtd">
<svg version="1.1" id="Layer_1" xmlns="http://www.w3.org/2000/svg" xmlns:xlink="http://www.w3.org/1999/xlink" x="0px" y="0px"
	 width="64px" height="64px" viewBox="0 0 64 64" enable-background="new 0 0 64 64" xml:space="preserve">
<g>
	<path fill="#FFFFFF" d="M32.288,62.249l-1.593-0.545c0,0,0.195-8.123-2.721-8.707c-1.943-2.254,0.312-95.621,7.308-0.311
		c0,0-2.41,1.204-2.837,3.266C31.977,57.974,32.288,62.249,32.288,62.249L32.288,62.249z"/>
	<path fill="#A6A385" d="M32.288,62.249l-1.593-0.545c0,0,0.195-8.123-2.721-8.707c-1.943-2.254,0.312-95.621,7.308-0.311
		c0,0-2.41,1.204-2.837,3.266C31.977,57.974,32.288,62.249,32.288,62.249L32.288,62.249z"/>
	<path fill="#FFFFFF" d="M33.143,54.396c0,0,13.956-9.173,10.69-28.259C40.685,12.261,33.26,7.713,32.444,5.963
		c-0.894-1.243-1.75-3.42-1.75-3.42l0.583,38.599c0,0.039-1.205,11.816,1.867,13.255"/>
	<path fill="#499D4A" d="M33.143,54.396c0,0,13.956-9.173,10.69-28.259C40.685,12.261,33.26,7.713,32.444,5.963
		c-0.894-1.243-1.75-3.42-1.75-3.42l0.583,38.599c0,0.039-1.205,11.816,1.867,13.255"/>
	<path fill="#FFFFFF" d="M29.878,54.902c0,0-13.1-8.94-12.322-24.683c0.738-15.742,9.989-23.478,11.778-24.877
		c1.166-1.244,1.205-1.71,1.283-2.955c0.816,1.75,0.661,26.161,0.777,29.036C31.743,42.502,30.772,52.803,29.878,54.902z"/>
	<path fill="#58AA50" d="M29.878,54.902c0,0-13.1-8.94-12.322-24.683c0.738-15.742,9.989-23.478,11.778-24.877
		c1.166-1.244,1.205-1.71,1.283-2.955c0.816,1.75,0.661,26.161,0.777,29.036C31.743,42.502,30.772,52.803,29.878,54.902z"/>
</g>
</svg>
