<?xml version="1.0" encoding="utf-8"?>
<!-- Generator: Adobe Illustrator 16.0.0, SVG Export Plug-In . SVG Version: 6.00 Build 0)  -->
<!DOCTYPE svg PUBLIC "-//W3C//DTD SVG 1.1//EN" "http://www.w3.org/Graphics/SVG/1.1/DTD/svg11.dtd">
<svg version="1.1" id="Layer_1" xmlns="http://www.w3.org/2000/svg" xmlns:xlink="http://www.w3.org/1999/xlink" x="0px" y="0px"
	 width="64px" height="64px" viewBox="0 0 64 64" enable-background="new 0 0 64 64" xml:space="preserve">
<g>
	<path fill="#FFFFFF" d="M-0.335,32.221c0,4.859,4.745,9.396,12.224,11.951c-1.495,7.521-0.268,13.581,3.827,15.944
		c4.209,2.427,10.48,0.746,16.431-4.455c5.798,4.992,11.667,6.956,15.757,4.587c4.204-2.434,5.482-8.905,3.948-16.66
		C59.646,41.012,64,37.144,64,32.221c0-4.746-4.755-8.851-12.131-11.392c1.649-8.075,0.254-13.988-4.014-16.448
		C43.743,2.011,37.814,4.078,31.927,9.2c-6.125-5.438-11.998-7.097-16.258-4.63c-4.106,2.377-5.278,8.548-3.78,16.207
		C4.662,23.296-0.335,27.495-0.335,32.221z"/>
	<path fill="#53C1DE" d="M50.308,23.352c-0.612-0.209-1.224-0.402-1.841-0.579c0.103-0.417,0.196-0.836,0.285-1.255
		c1.392-6.759,0.48-12.203-2.629-13.996c-2.98-1.719-7.854,0.074-12.777,4.358c-0.483,0.422-0.96,0.858-1.422,1.304
		c-0.31-0.296-0.627-0.588-0.948-0.874c-5.16-4.582-10.331-6.512-13.436-4.714c-2.979,1.724-3.859,6.842-2.607,13.248
		c0.125,0.634,0.266,1.265,0.423,1.892c-0.732,0.208-1.439,0.43-2.115,0.665c-6.051,2.109-9.914,5.415-9.914,8.843
		c0,3.541,4.148,7.091,10.448,9.246c0.51,0.173,1.025,0.334,1.545,0.481c-0.169,0.677-0.318,1.358-0.449,2.04
		c-1.194,6.296-0.262,11.294,2.708,13.005c3.068,1.77,8.216-0.048,13.229-4.43c0.397-0.348,0.794-0.714,1.192-1.1
		c0.504,0.485,1.016,0.954,1.546,1.409c4.854,4.179,9.65,5.865,12.619,4.149c3.064-1.774,4.06-7.144,2.768-13.676
		c-0.1-0.501-0.215-1.009-0.344-1.529c0.362-0.105,0.715-0.216,1.064-0.331c6.548-2.17,10.809-5.677,10.809-9.266
		C60.463,28.805,56.478,25.476,50.308,23.352L50.308,23.352z"/>
	<ellipse fill="#FFFFFF" cx="31.975" cy="32.234" rx="26.99" ry="10.772"/>
	<path fill="#FFFFFF" d="M48.885,39.195c-0.312,0.104-0.632,0.2-0.958,0.298c-0.727-2.288-1.7-4.724-2.896-7.237
		c1.14-2.455,2.079-4.858,2.782-7.133c0.587,0.17,1.151,0.348,1.7,0.536c5.286,1.82,8.512,4.512,8.512,6.585
		c0,2.207-3.484,5.076-9.138,6.95H48.885z M46.537,43.843c0.572,2.891,0.654,5.503,0.275,7.544
		c-0.341,1.835-1.023,3.056-1.871,3.546c-1.801,1.044-5.649-0.311-9.804-3.886c-0.476-0.411-0.955-0.849-1.436-1.31
		c1.607-1.761,3.218-3.81,4.788-6.083c2.763-0.244,5.371-0.644,7.739-1.193C46.347,42.932,46.448,43.396,46.537,43.843
		L46.537,43.843z M22.807,54.752c-1.759,0.622-3.161,0.64-4.007,0.15c-1.803-1.04-2.551-5.05-1.53-10.435
		c0.122-0.634,0.26-1.27,0.417-1.896c2.34,0.517,4.93,0.89,7.699,1.113c1.582,2.226,3.236,4.27,4.904,6.061
		c-0.353,0.343-0.717,0.677-1.088,1.001C26.987,52.687,24.766,54.061,22.807,54.752L22.807,54.752z M14.565,39.18
		c-2.785-0.952-5.085-2.188-6.663-3.538c-1.417-1.213-2.134-2.419-2.134-3.396c0-2.081,3.103-4.735,8.277-6.539
		c0.649-0.224,1.304-0.432,1.965-0.619c0.715,2.326,1.653,4.758,2.785,7.217c-1.146,2.496-2.098,4.966-2.82,7.318
		C15.503,39.486,15.032,39.341,14.565,39.18z M17.328,20.375c-1.074-5.487-0.36-9.627,1.434-10.666
		c1.912-1.107,6.138,0.472,10.594,4.427c0.284,0.252,0.569,0.517,0.857,0.792c-1.661,1.783-3.3,3.812-4.867,6.023
		c-2.688,0.249-5.26,0.648-7.625,1.184C17.576,21.552,17.444,20.965,17.328,20.375L17.328,20.375z M41.974,26.461
		c-0.557-0.965-1.138-1.917-1.737-2.857c1.821,0.23,3.568,0.537,5.211,0.911c-0.494,1.577-1.108,3.229-1.829,4.92
		C43.089,28.432,42.541,27.441,41.974,26.461L41.974,26.461z M31.924,16.672c1.126,1.22,2.253,2.582,3.36,4.059
		c-2.245-0.106-4.501-0.106-6.752-0.002C29.644,19.266,30.78,17.906,31.924,16.672z M21.809,26.478
		c-0.561,0.973-1.099,1.958-1.613,2.956c-0.71-1.686-1.319-3.345-1.815-4.944c1.63-0.365,3.369-0.663,5.179-0.89
		C22.953,24.544,22.37,25.504,21.809,26.478z M23.611,41.064c-1.87-0.208-3.636-0.492-5.265-0.849
		c0.504-1.628,1.126-3.32,1.852-5.042c0.517,0.997,1.057,1.984,1.62,2.955C22.393,39.123,22.992,40.1,23.611,41.064z M31.99,47.988
		c-1.155-1.247-2.31-2.627-3.438-4.114c1.094,0.045,2.211,0.065,3.343,0.065c1.166,0,2.317-0.025,3.45-0.078
		C34.234,45.375,33.108,46.76,31.99,47.988z M43.64,35.084c0.765,1.742,1.407,3.426,1.921,5.026
		c-1.656,0.379-3.445,0.684-5.329,0.911c0.603-0.957,1.186-1.928,1.751-2.908C42.56,37.115,43.112,36.106,43.64,35.084L43.64,35.084
		z M39.869,36.894c-0.863,1.505-1.78,2.978-2.74,4.422c-1.697,0.121-3.445,0.185-5.233,0.185c-1.777,0-3.508-0.054-5.173-0.163
		c-0.986-1.44-1.917-2.918-2.792-4.43c-0.871-1.503-1.685-3.039-2.438-4.604c0.751-1.566,1.562-3.102,2.43-4.606l0,0
		c0.867-1.504,1.792-2.976,2.771-4.41c1.699-0.129,3.441-0.196,5.202-0.196c1.768,0,3.515,0.067,5.212,0.196
		c0.97,1.433,1.888,2.899,2.753,4.396c0.872,1.501,1.69,3.029,2.463,4.584C41.561,33.839,40.74,35.381,39.869,36.894L39.869,36.894z
		 M44.905,9.637c1.912,1.103,2.655,5.554,1.453,11.388c-0.077,0.381-0.163,0.759-0.254,1.136c-2.372-0.546-4.945-0.955-7.641-1.206
		c-1.57-2.236-3.196-4.269-4.829-6.028c0.428-0.413,0.865-0.814,1.313-1.205C39.165,10.051,43.11,8.601,44.905,9.637L44.905,9.637z"
		/>
</g>
<g>
	
		<linearGradient id="SVGID_1_" gradientUnits="userSpaceOnUse" x1="-0.2808" y1="64.7256" x2="-0.2808" y2="64.7023" gradientTransform="matrix(445.3907 0 0 -794.2871 153.75 51435)">
		<stop  offset="0" style="stop-color:#0994DC"/>
		<stop  offset="0.35" style="stop-color:#66CEF5"/>
		<stop  offset="0.35" style="stop-color:#66CEF5"/>
		<stop  offset="0.8462" style="stop-color:#127BCA"/>
		<stop  offset="0.8462" style="stop-color:#127BCA"/>
		<stop  offset="1" style="stop-color:#127BCA"/>
	</linearGradient>
	<path fill="url(#SVGID_1_)" d="M25.472,27.062c1.445,4.416,1.992,12.293,6.216,12.293c0.32,0,0.647-0.03,0.972-0.094
		c-3.84-0.896-4.293-8.686-6.636-12.723C25.837,26.71,25.653,26.885,25.472,27.062"/>
	
		<linearGradient id="SVGID_2_" gradientUnits="userSpaceOnUse" x1="-0.2905" y1="64.7012" x2="-0.2905" y2="64.6764" gradientTransform="matrix(467.4707 0 0 -814.5215 165.75 52724)">
		<stop  offset="0" style="stop-color:#0E76BC"/>
		<stop  offset="0.36" style="stop-color:#36AEE8"/>
		<stop  offset="0.36" style="stop-color:#36AEE8"/>
		<stop  offset="0.8462" style="stop-color:#00ADEF"/>
		<stop  offset="0.8462" style="stop-color:#00ADEF"/>
		<stop  offset="1" style="stop-color:#00ADEF"/>
	</linearGradient>
	<path fill="url(#SVGID_2_)" d="M26.024,26.539c2.343,4.037,2.796,11.827,6.636,12.723c0.303-0.056,0.606-0.14,0.905-0.245
		c-3.444-1.687-4.396-9.254-7.057-12.896c-0.164,0.136-0.325,0.277-0.484,0.42"/>
	<path fill="#14559A" d="M29.398,24.14c-0.321,0-0.646,0.032-0.974,0.093c-0.854,0.161-1.722,0.529-2.597,1.085
		c0.24,0.236,0.466,0.505,0.681,0.801c0.89-0.74,1.774-1.285,2.656-1.614c0.32-0.119,0.651-0.211,0.99-0.274
		C29.907,24.17,29.653,24.138,29.398,24.14"/>
	
		<linearGradient id="SVGID_3_" gradientUnits="userSpaceOnUse" x1="-0.9272" y1="64.5391" x2="-0.9272" y2="64.5574" gradientTransform="matrix(443.8769 0 0 -825.1953 445.25 53296)">
		<stop  offset="0" style="stop-color:#1C63B7"/>
		<stop  offset="0.5" style="stop-color:#33BDF2"/>
		<stop  offset="1" style="stop-color:#33BDF2;stop-opacity:0.42"/>
	</linearGradient>
	<path fill="url(#SVGID_3_)" d="M36.256,37.461c0.367-0.293,0.722-0.604,1.06-0.929c-1.465-4.395-1.993-12.385-6.246-12.385
		c-0.304,0-0.61,0.028-0.917,0.085C34.027,25.194,34.522,33.621,36.256,37.461"/>
	<path fill="#3092C4" d="M30.153,24.232c-0.246-0.063-0.501-0.094-0.755-0.092l1.673,0.006
		C30.767,24.146,30.459,24.174,30.153,24.232"/>
	<path fill="#1969BC" d="M36.182,38.396c-0.166-0.159-0.323-0.335-0.479-0.52c-0.716,0.506-1.43,0.89-2.138,1.14
		c0.252,0.125,0.523,0.216,0.798,0.272c0.222,0.044,0.451,0.067,0.677,0.066c0.796,0,1.424-0.094,1.958-0.351
		C36.705,38.845,36.434,38.639,36.182,38.396"/>
	
		<linearGradient id="SVGID_4_" gradientUnits="userSpaceOnUse" x1="-0.8091" y1="64.5762" x2="-0.8091" y2="64.5529" gradientTransform="matrix(439.5606 0 0 -845.6836 388.25 54633)">
		<stop  offset="0" style="stop-color:#166AB8"/>
		<stop  offset="0.4" style="stop-color:#36AEE8"/>
		<stop  offset="0.4" style="stop-color:#36AEE8"/>
		<stop  offset="0.8462" style="stop-color:#0798DD"/>
		<stop  offset="0.8462" style="stop-color:#0798DD"/>
		<stop  offset="1" style="stop-color:#0798DD"/>
	</linearGradient>
	<path fill="url(#SVGID_4_)" d="M29.164,24.507c3.47,1.816,3.771,10.033,6.539,13.37c0.188-0.135,0.372-0.271,0.554-0.416
		c-1.733-3.84-2.229-12.267-6.101-13.229C29.817,24.295,29.484,24.389,29.164,24.507"/>
	
		<linearGradient id="SVGID_5_" gradientUnits="userSpaceOnUse" x1="-0.1099" y1="64.6211" x2="-0.1099" y2="64.5978" gradientTransform="matrix(569.834 0 0 -899.2383 93.5 58131.5)">
		<stop  offset="0" style="stop-color:#124379"/>
		<stop  offset="0.39" style="stop-color:#1487CB"/>
		<stop  offset="0.39" style="stop-color:#1487CB"/>
		<stop  offset="0.7802" style="stop-color:#165197"/>
		<stop  offset="0.7802" style="stop-color:#165197"/>
		<stop  offset="1" style="stop-color:#165197"/>
	</linearGradient>
	<path fill="url(#SVGID_5_)" d="M26.508,26.12c2.661,3.642,3.612,11.21,7.057,12.896c0.708-0.25,1.423-0.634,2.138-1.14
		c-2.768-3.337-3.069-11.554-6.539-13.37C28.282,24.835,27.398,25.38,26.508,26.12"/>
	
		<linearGradient id="SVGID_6_" gradientUnits="userSpaceOnUse" x1="-1.0405" y1="64.1309" x2="-1.0244" y2="64.1309" gradientTransform="matrix(189.6387 0 0 -301.9629 219.75 19393.5)">
		<stop  offset="0" style="stop-color:#33BDF2;stop-opacity:0.698"/>
		<stop  offset="1" style="stop-color:#1DACD8"/>
	</linearGradient>
	<path fill="url(#SVGID_6_)" d="M23.771,26.956c-0.417,0.942-0.843,2.181-1.357,3.798c1.023-1.443,2.043-2.685,3.058-3.691
		c-0.138-0.431-0.289-0.826-0.45-1.181C24.586,26.217,24.168,26.577,23.771,26.956"/>
	<path fill="#2B74B1" d="M25.392,25.611c-0.125,0.089-0.25,0.181-0.37,0.271c0.161,0.354,0.312,0.748,0.45,1.18
		c0.181-0.177,0.365-0.351,0.552-0.523C25.826,26.202,25.618,25.891,25.392,25.611"/>
	<path fill="#125A9E" d="M25.828,25.319c-0.146,0.094-0.293,0.191-0.436,0.292c0.226,0.279,0.434,0.591,0.632,0.93
		c0.159-0.145,0.32-0.285,0.484-0.42C26.294,25.826,26.067,25.555,25.828,25.319"/>
	
		<linearGradient id="SVGID_7_" gradientUnits="userSpaceOnUse" x1="-0.813" y1="64.583" x2="-0.813" y2="64.5992" gradientTransform="matrix(772.8809 0 0 -963.6634 674 62275)">
		<stop  offset="0" style="stop-color:#136AB4"/>
		<stop  offset="0.6" style="stop-color:#59CAF5;stop-opacity:0.549"/>
		<stop  offset="1" style="stop-color:#59CAF5;stop-opacity:0.235"/>
	</linearGradient>
	<path fill="url(#SVGID_7_)" d="M49.491,23.804c-1.963,7.565-6.059,13.644-9.495,15.177h-0.005
		c-0.064,0.029-0.127,0.057-0.188,0.078c-0.007,0.006-0.014,0.007-0.022,0.009c-0.018,0.008-0.032,0.012-0.052,0.021
		c-0.009,0.007-0.016,0.008-0.024,0.011c-0.028,0.011-0.056,0.018-0.083,0.028c-0.015,0.008-0.025,0.011-0.039,0.014
		c-0.012,0.006-0.025,0.01-0.042,0.014c-0.015,0.005-0.026,0.01-0.041,0.015c-0.013,0.005-0.026,0.008-0.036,0.014
		c-0.026,0.005-0.047,0.013-0.075,0.021c-0.007,0-0.018,0.007-0.029,0.008c-0.015,0.005-0.032,0.01-0.05,0.016
		c-0.013,0.005-0.02,0.006-0.03,0.007c-0.02,0.007-0.038,0.009-0.06,0.015l-0.063,0.016c0.155,0.057,0.324,0.086,0.493,0.086
		c3.258,0,6.542-5.839,11.979-15.548h-2.138L49.491,23.804L49.491,23.804z"/>
	
		<linearGradient id="SVGID_8_" gradientUnits="userSpaceOnUse" x1="1.3906" y1="64.6133" x2="1.4067" y2="64.6133" gradientTransform="matrix(703.3398 0 0 -968.3691 -966.5 62602)">
		<stop  offset="0" style="stop-color:#05A1E6;stop-opacity:0.247"/>
		<stop  offset="1" style="stop-color:#05A1E6"/>
	</linearGradient>
	<path fill="url(#SVGID_8_)" d="M21.707,24.447c0.002,0,0.004-0.005,0.006-0.005c0.002,0,0.006,0,0.007-0.004h0.005
		c0.018-0.006,0.034-0.012,0.052-0.021c0.004,0,0.008,0,0.011-0.005c0.003,0,0.009-0.004,0.014-0.006
		c0.019-0.006,0.039-0.014,0.057-0.02h0.002c0.043-0.013,0.084-0.029,0.125-0.044c0.005,0,0.012-0.005,0.019-0.005
		c0.017-0.006,0.035-0.012,0.053-0.017c0.009-0.005,0.018-0.005,0.026-0.007c0.018-0.005,0.035-0.013,0.053-0.017
		c0.008,0,0.015-0.005,0.021-0.005c0.061-0.017,0.119-0.032,0.18-0.047c0.007,0,0.014-0.005,0.023-0.006
		c0.018-0.004,0.034-0.007,0.053-0.009c0.007-0.006,0.016-0.006,0.024-0.008c0.019-0.005,0.035-0.006,0.053-0.011h0.013
		c0.036-0.007,0.073-0.012,0.109-0.02h0.021c0.017-0.004,0.033-0.004,0.051-0.009c0.009,0,0.018-0.005,0.028-0.005
		c0.016,0,0.032-0.004,0.049-0.006c0.008,0,0.016,0,0.025-0.006c0.039-0.006,0.078-0.007,0.118-0.009
		c-0.116-0.012-0.23-0.019-0.346-0.019c-3.669,0-8.726,6.807-11.002,15.624h0.438c0.729-1.299,1.384-2.529,1.983-3.684
		c1.594-6.243,4.842-10.502,7.728-11.631"/>
	<path fill="#0D82CA" d="M23.772,26.956c0.396-0.379,0.814-0.739,1.25-1.074c-0.089-0.197-0.189-0.39-0.298-0.575
		C24.389,25.714,24.082,26.252,23.772,26.956"/>
	<path fill="#0D82CA" d="M24.073,24.499c0.24,0.201,0.454,0.477,0.65,0.809c0.062-0.077,0.125-0.147,0.189-0.212
		c-0.272-0.254-0.567-0.464-0.886-0.622c0.013,0.008,0.025,0.015,0.039,0.02C24.065,24.494,24.072,24.499,24.073,24.499"/>
	
		<linearGradient id="SVGID_9_" gradientUnits="userSpaceOnUse" x1="1.2739" y1="64.498" x2="1.2739" y2="64.5189" gradientTransform="matrix(479.0137 0 0 -720.9277 -592.25 46537)">
		<stop  offset="0" style="stop-color:#318ED5"/>
		<stop  offset="1" style="stop-color:#38A7E4"/>
	</linearGradient>
	<path fill="url(#SVGID_9_)" d="M13.979,36.079c3.346-6.447,4.929-10.529,7.728-11.632C18.821,25.577,15.573,29.834,13.979,36.079"
		/>
	<path fill="#127BCA" d="M24.913,25.095c-0.066,0.067-0.127,0.136-0.189,0.213c0.109,0.185,0.209,0.378,0.298,0.574
		c0.121-0.091,0.244-0.183,0.37-0.271C25.245,25.427,25.084,25.255,24.913,25.095"/>
	
		<linearGradient id="SVGID_10_" gradientUnits="userSpaceOnUse" x1="1.1226" y1="65.0518" x2="1.1226" y2="65.0796" gradientTransform="matrix(445.3516 0 0 -557.8906 -481 36331)">
		<stop  offset="0" style="stop-color:#05A1E6"/>
		<stop  offset="1" style="stop-color:#05A1E6;stop-opacity:0.549"/>
	</linearGradient>
	<path fill="url(#SVGID_10_)" d="M15.496,39.732c-0.02,0.006-0.041,0.006-0.059,0.006h-0.012c-0.017,0-0.036,0.006-0.051,0.006
		h-0.008c-0.042,0.006-0.084,0.006-0.124,0.011h-0.012c3.385-0.097,4.934-1.79,5.702-4.25c0.584-1.865,1.062-3.436,1.483-4.753
		c-1.419,1.997-2.843,4.377-4.275,7.042c-0.691,1.284-1.742,1.822-2.643,1.937"/>
	
		<linearGradient id="SVGID_11_" gradientUnits="userSpaceOnUse" x1="1.0757" y1="64.7393" x2="1.0757" y2="64.7549" gradientTransform="matrix(512.8906 0 0 -791.9336 -532.25 51308.5)">
		<stop  offset="0" style="stop-color:#1959A6"/>
		<stop  offset="0.5" style="stop-color:#05A1E6"/>
		<stop  offset="0.5" style="stop-color:#05A1E6"/>
		<stop  offset="0.9176" style="stop-color:#7EC5EA"/>
		<stop  offset="1" style="stop-color:#7EC5EA"/>
	</linearGradient>
	<path fill="url(#SVGID_11_)" d="M15.496,39.732c0.901-0.116,1.952-0.653,2.643-1.938c1.433-2.665,2.857-5.044,4.275-7.042
		c0.515-1.617,0.94-2.856,1.358-3.799c-2.825,2.689-5.66,7.16-8.276,12.775"/>
	<path fill="#05A1E6" d="M13.979,36.079c-0.599,1.152-1.254,2.383-1.983,3.682h1.277C13.433,38.521,13.668,37.29,13.979,36.079"/>
	
		<linearGradient id="SVGID_12_" gradientUnits="userSpaceOnUse" x1="1.249" y1="64.6074" x2="1.2455" y2="64.6221" gradientTransform="matrix(709.7363 0 0 -966.8456 -867 62504.5)">
		<stop  offset="0" style="stop-color:#165096"/>
		<stop  offset="1" style="stop-color:#0D82CA"/>
	</linearGradient>
	<path fill="url(#SVGID_12_)" d="M22.787,24.168c-0.01,0-0.018,0.005-0.026,0.005c-0.016,0.005-0.032,0.005-0.048,0.006
		c-0.009,0-0.019,0-0.028,0.006c-0.018,0.006-0.034,0.006-0.052,0.01c-0.006,0-0.015,0-0.021,0.003
		c-0.037,0.006-0.073,0.012-0.109,0.02h-0.013c-0.019,0.005-0.036,0.009-0.053,0.01c-0.009,0.005-0.017,0.005-0.026,0.007
		c-0.018,0.005-0.034,0.007-0.051,0.011c-0.009,0.004-0.016,0.004-0.023,0.005c-0.062,0.015-0.12,0.03-0.18,0.046
		c-0.006,0-0.014,0.004-0.021,0.006c-0.018,0.005-0.036,0.01-0.053,0.016c-0.008,0.005-0.017,0.005-0.026,0.007
		c-0.018,0.004-0.036,0.01-0.053,0.016c-0.008,0-0.014,0.004-0.02,0.004c-0.041,0.015-0.082,0.031-0.125,0.043
		c-0.017,0.004-0.038,0.013-0.056,0.02c-0.008,0.005-0.016,0.007-0.025,0.011c-0.018,0.005-0.036,0.013-0.052,0.019
		c-0.007,0.005-0.013,0.006-0.018,0.009c-2.797,1.105-4.383,5.184-7.729,11.632c-0.308,1.213-0.545,2.441-0.705,3.683h0.178
		c0.505,0,0.647-0.006,1.228-0.006h0.563c0.04-0.004,0.082-0.004,0.123-0.007h0.007c0.018,0,0.036-0.008,0.052-0.008h0.012
		c0.019,0,0.04-0.003,0.061-0.006c2.615-5.617,5.451-10.088,8.275-12.776c0.311-0.702,0.617-1.241,0.952-1.649
		c-0.197-0.33-0.411-0.606-0.651-0.808c0,0-0.006,0-0.006-0.004c-0.014-0.007-0.027-0.013-0.039-0.02
		c-0.016-0.008-0.027-0.014-0.042-0.02c-0.012-0.006-0.025-0.013-0.036-0.02c-0.018-0.004-0.031-0.012-0.046-0.017
		c-0.013-0.007-0.024-0.013-0.036-0.017c-0.025-0.011-0.05-0.019-0.073-0.031c-0.012-0.005-0.022-0.008-0.032-0.012
		c-0.019-0.005-0.037-0.014-0.056-0.02c-0.009-0.006-0.02-0.008-0.03-0.012c-0.025-0.009-0.053-0.018-0.076-0.025h-0.008
		c-0.028-0.011-0.058-0.017-0.087-0.025c-0.008-0.007-0.014-0.007-0.02-0.007c-0.027-0.006-0.051-0.016-0.076-0.021
		c-0.006,0-0.011-0.005-0.017-0.005c-0.063-0.016-0.124-0.03-0.187-0.042c-0.006,0-0.014-0.004-0.019-0.004
		c-0.027-0.006-0.054-0.011-0.081-0.012c-0.008-0.006-0.01-0.006-0.017-0.006c-0.032-0.006-0.064-0.009-0.095-0.012h-0.017
		c-0.025-0.005-0.049-0.006-0.073-0.009c-0.042,0.005-0.08,0.008-0.118,0.01"/>
	
		<linearGradient id="SVGID_13_" gradientUnits="userSpaceOnUse" x1="-3.5933" y1="64.332" x2="-3.5933" y2="64.3454" gradientTransform="matrix(319.9902 0 0 -558.8477 1192.5 35983)">
		<stop  offset="0" style="stop-color:#05A1E6"/>
		<stop  offset="0.8736" style="stop-color:#0495D6"/>
		<stop  offset="1" style="stop-color:#0495D6"/>
	</linearGradient>
	<path fill="url(#SVGID_13_)" d="M41.827,27.993c-0.644,2.062-1.165,3.764-1.618,5.163c1.766-2.431,3.507-5.489,5.164-9.018
		C43.438,24.747,42.407,26.134,41.827,27.993"/>
	
		<linearGradient id="SVGID_14_" gradientUnits="userSpaceOnUse" x1="-1.4688" y1="64.5908" x2="-1.4739" y2="64.5725" gradientTransform="matrix(588.5743 0 0 -940.6543 910.5 60779.5)">
		<stop  offset="0" style="stop-color:#38A7E4;stop-opacity:0.329"/>
		<stop  offset="0.9615" style="stop-color:#0E88D3"/>
		<stop  offset="0.9615" style="stop-color:#0E88D3"/>
		<stop  offset="1" style="stop-color:#0E88D3"/>
	</linearGradient>
	<path fill="url(#SVGID_14_)" d="M40.265,38.853c-0.091,0.047-0.18,0.089-0.269,0.129c3.437-1.533,7.532-7.612,9.495-15.177h-0.396
		C44.587,31.857,43.138,37.245,40.265,38.853"/>
	<path fill="#079AE1" d="M38.021,38.175c0.747-0.912,1.356-2.463,2.188-5.019c-0.959,1.317-1.924,2.448-2.891,3.372
		c0,0.007,0,0.007-0.003,0.008C37.523,37.168,37.758,37.726,38.021,38.175"/>
	<path fill="#1969BC" d="M38.021,38.175c-0.253,0.313-0.523,0.549-0.823,0.725c-0.067,0.036-0.133,0.072-0.201,0.105
		c0.327,0.178,0.683,0.289,1.052,0.329c0.056,0.006,0.111,0.015,0.17,0.017h0.008c0.028,0,0.059,0,0.083,0.005h0.28
		c0.011,0,0.022,0,0.031-0.005c0.019,0,0.043,0,0.062-0.004h0.03c0.024,0,0.046-0.007,0.067-0.009h0.008
		c0.005,0,0.013-0.005,0.02-0.005c0.022-0.004,0.048-0.008,0.069-0.012H38.9c0.026-0.002,0.053-0.008,0.079-0.014h0.014
		c0.053-0.01,0.107-0.019,0.16-0.033c-0.442-0.161-0.814-0.546-1.135-1.091"/>
	<path fill="#1E5CB3" d="M31.688,39.355c0.32,0,0.647-0.03,0.972-0.094c0.303-0.056,0.606-0.14,0.907-0.245
		c0.25,0.125,0.521,0.216,0.796,0.272c0.222,0.044,0.451,0.067,0.681,0.066H31.688z"/>
	<path fill="#1E5CB3" d="M35.043,39.355c0.792,0,1.423-0.094,1.954-0.351c0.327,0.178,0.683,0.289,1.052,0.331
		c0.056,0.004,0.111,0.013,0.17,0.015h0.008c0.028,0,0.059,0,0.083,0.006h0.098h-3.368L35.043,39.355L35.043,39.355z"/>
	<path fill="#1D60B5" d="M38.41,39.355h0.185c0.009,0,0.02,0,0.029-0.005c0.021,0,0.043,0,0.063-0.004h0.031
		c0.021,0,0.042-0.007,0.066-0.009h0.005c0.007,0,0.015-0.005,0.021-0.005c0.023-0.004,0.046-0.008,0.071-0.012
		c0.004,0,0.015,0,0.021-0.002c0.026-0.009,0.054-0.012,0.079-0.016h0.016c0.053-0.01,0.106-0.02,0.158-0.035
		c0.157,0.061,0.325,0.088,0.494,0.088l-1.239,0.003L38.41,39.355z"/>
	<path fill="#175FAB" d="M37.316,36.536v-0.004c-0.339,0.324-0.692,0.636-1.061,0.929c-0.182,0.143-0.364,0.281-0.55,0.415
		c0.152,0.186,0.31,0.36,0.476,0.521c0.253,0.242,0.523,0.448,0.815,0.608c0.071-0.033,0.139-0.07,0.201-0.108
		c0.3-0.174,0.57-0.41,0.824-0.722c-0.264-0.449-0.495-1.007-0.704-1.639"/>
	
		<linearGradient id="SVGID_15_" gradientUnits="userSpaceOnUse" x1="-0.9419" y1="64.5967" x2="-0.9419" y2="64.5797" gradientTransform="matrix(686.3376 0 0 -958.1152 690.5 61914.5)">
		<stop  offset="0" style="stop-color:#168CD4"/>
		<stop  offset="0.5" style="stop-color:#1C87CC"/>
		<stop  offset="1" style="stop-color:#154B8D"/>
	</linearGradient>
	<path fill="url(#SVGID_15_)" d="M47.836,23.804h-2.002c-0.108,0.003-0.213,0.009-0.316,0.016c-0.048,0.104-0.101,0.21-0.148,0.316
		c-1.658,3.528-3.396,6.585-5.164,9.017c-0.828,2.557-1.438,4.107-2.187,5.019c0.32,0.546,0.692,0.931,1.135,1.093
		c0.012-0.006,0.024-0.006,0.034-0.009h0.006c0.009,0,0.016-0.006,0.025-0.006c0.018-0.006,0.038-0.008,0.055-0.015
		c0.014-0.002,0.022-0.002,0.032-0.007c0.02-0.006,0.035-0.011,0.05-0.014c0.012-0.007,0.021-0.008,0.031-0.01
		c0.027-0.008,0.05-0.012,0.075-0.021c0.011-0.006,0.022-0.012,0.035-0.014c0.016-0.005,0.028-0.009,0.043-0.015
		c0.017-0.006,0.03-0.008,0.042-0.014c0.012-0.004,0.024-0.009,0.034-0.014c0.031-0.011,0.059-0.018,0.087-0.028
		c0.01,0,0.015-0.008,0.023-0.01c0.017-0.007,0.036-0.014,0.053-0.021c0.007-0.003,0.015-0.003,0.023-0.008
		c0.059-0.022,0.12-0.05,0.185-0.079h0.008c0.09-0.04,0.179-0.082,0.269-0.129c2.873-1.607,4.323-6.996,8.83-15.048h-1.26H47.836
		L47.836,23.804z"/>
	<path fill="#7DCBEC" d="M22.905,24.157c0.006,0,0.015,0,0.02,0.004c0.018,0,0.035,0,0.052,0.006h0.019
		c0.031,0.005,0.062,0.009,0.095,0.014c0.006,0,0.01,0,0.016,0.005c0.026,0.004,0.053,0.009,0.081,0.012
		c0.005,0,0.014,0.005,0.021,0.005c0.061,0.013,0.125,0.025,0.184,0.042c0.007,0,0.013,0.005,0.017,0.005
		c0.027,0.005,0.049,0.014,0.076,0.021c0.006,0,0.012,0.006,0.019,0.007c0.031,0.007,0.06,0.014,0.089,0.024
		c0,0,0.002,0,0.007,0.007c0.025,0.006,0.05,0.016,0.077,0.024c0.011,0.007,0.021,0.009,0.03,0.012
		c0.018,0.008,0.038,0.015,0.056,0.022c0.009,0,0.019,0.006,0.031,0.012c0.023,0.01,0.049,0.021,0.073,0.03
		c0.013,0.005,0.024,0.01,0.036,0.016c0.015,0.007,0.03,0.013,0.045,0.018c0.013,0.007,0.026,0.013,0.04,0.02
		c0.014,0.007,0.027,0.011,0.04,0.02c0.319,0.157,0.614,0.367,0.886,0.621c0.097-0.104,0.204-0.198,0.314-0.286
		c-0.597-0.422-1.271-0.664-2.05-0.664c-0.09,0-0.18,0.005-0.272,0.012"/>
	<path fill="#5EC5ED" d="M24.913,25.095c0.171,0.16,0.332,0.332,0.479,0.516c0.142-0.101,0.289-0.198,0.436-0.292
		c-0.185-0.187-0.387-0.358-0.601-0.508C25.114,24.897,25.01,24.991,24.913,25.095"/>
	
		<linearGradient id="SVGID_16_" gradientUnits="userSpaceOnUse" x1="-0.2461" y1="72.8037" x2="-0.2342" y2="72.8414" gradientTransform="matrix(316.9922 0 0 41.5039 101.5 -2998.2813)">
		<stop  offset="0" style="stop-color:#97D6EE"/>
		<stop  offset="0.7033" style="stop-color:#55C1EA"/>
		<stop  offset="1" style="stop-color:#55C1EA"/>
	</linearGradient>
	<path fill="url(#SVGID_16_)" d="M22.905,24.157c0.092-0.006,0.182-0.011,0.272-0.011c0.778,0,1.453,0.241,2.05,0.665
		c0.63-0.497,1.39-0.67,2.445-0.67h-5.113C22.676,24.14,22.792,24.147,22.905,24.157"/>
	
		<linearGradient id="SVGID_17_" gradientUnits="userSpaceOnUse" x1="-1.1606" y1="69.0244" x2="-1.1495" y2="69.0066" gradientTransform="matrix(258.5156 0 0 73.0859 325.5 -5019.5)">
		<stop  offset="0" style="stop-color:#7ACCEC"/>
		<stop  offset="1" style="stop-color:#3FB7ED"/>
	</linearGradient>
	<path fill="url(#SVGID_17_)" d="M27.672,24.14c-1.055,0-1.815,0.174-2.445,0.67c0.214,0.15,0.416,0.322,0.601,0.508
		c0.876-0.556,1.744-0.924,2.599-1.085c0.32-0.061,0.646-0.092,0.972-0.093H27.672L27.672,24.14z"/>
	
		<linearGradient id="SVGID_18_" gradientUnits="userSpaceOnUse" x1="-1.5415" y1="64.5098" x2="-1.5415" y2="64.4908" gradientTransform="matrix(508.2521 0 0 -787.4512 825.25 50823)">
		<stop  offset="0" style="stop-color:#1DA7E7"/>
		<stop  offset="1" style="stop-color:#37ABE7;stop-opacity:0"/>
	</linearGradient>
	<path fill="url(#SVGID_18_)" d="M40.209,33.158c0.454-1.401,0.975-3.103,1.618-5.165c0.581-1.859,1.611-3.247,3.543-3.855
		c0.054-0.104,0.101-0.21,0.148-0.316c-3.148,0.189-4.622,1.79-5.362,4.166c-1.296,4.144-2.081,6.827-2.838,8.54
		C38.285,35.604,39.25,34.474,40.209,33.158"/>
</g>
</svg>
